<svg xmlns="http://www.w3.org/2000/svg" viewBox="0 0 390 844" preserveAspectRatio="xMidYMid slice">
  <defs>
    <linearGradient id="sky" x1="0" y1="0" x2="0" y2="1">
      <stop offset="0%" stop-color="#e8f5e9"/>
      <stop offset="55%" stop-color="#f1f8e9"/>
      <stop offset="100%" stop-color="#dcedc8"/>
    </linearGradient>
    <radialGradient id="sunglow" cx="55%" cy="8%" r="30%">
      <stop offset="0%" stop-color="#fff9c4" stop-opacity="0.8"/>
      <stop offset="100%" stop-color="#fff9c4" stop-opacity="0"/>
    </radialGradient>
    <filter id="blur3"><feGaussianBlur stdDeviation="3"/></filter>
    <filter id="blur5"><feGaussianBlur stdDeviation="5"/></filter>
  </defs>

  <!-- Sky -->
  <rect width="390" height="844" fill="url(#sky)"/>
  <rect width="390" height="844" fill="url(#sunglow)"/>

  <!-- Big tree left -->
  <rect x="28" y="420" width="22" height="220" rx="6" fill="#a1887f"/>
  <ellipse cx="39" cy="400" rx="58" ry="65" fill="#66bb6a"/>
  <ellipse cx="20" cy="430" rx="40" ry="48" fill="#81c784"/>
  <ellipse cx="62" cy="435" rx="42" ry="46" fill="#4caf50"/>
  <ellipse cx="39" cy="370" rx="44" ry="52" fill="#a5d6a7"/>

  <!-- Big tree right -->
  <rect x="340" y="440" width="20" height="200" rx="5" fill="#a1887f"/>
  <ellipse cx="350" cy="422" rx="52" ry="58" fill="#66bb6a"/>
  <ellipse cx="328" cy="448" rx="38" ry="44" fill="#81c784"/>
  <ellipse cx="370" cy="450" rx="36" ry="42" fill="#4caf50"/>
  <ellipse cx="350" cy="394" rx="40" ry="48" fill="#a5d6a7"/>

  <!-- Mushrooms -->
  <g>
    <rect x="280" y="648" width="12" height="22" rx="3" fill="#fff8e1"/>
    <ellipse cx="286" cy="648" rx="20" ry="14" fill="#ef5350"/>
    <circle cx="278" cy="644" r="3" fill="white" opacity="0.8"/>
    <circle cx="290" cy="641" r="3" fill="white" opacity="0.8"/>
    <circle cx="284" cy="652" r="2.5" fill="white" opacity="0.8"/>
  </g>
  <g>
    <rect x="82" y="655" width="9" height="17" rx="3" fill="#fff8e1"/>
    <ellipse cx="87" cy="655" rx="15" ry="10" fill="#ef9a9a"/>
    <circle cx="81" cy="652" r="2" fill="white" opacity="0.8"/>
    <circle cx="90" cy="650" r="2" fill="white" opacity="0.8"/>
  </g>

  <!-- Pond -->
  <ellipse cx="195" cy="730" rx="80" ry="30" fill="#b3e5fc" opacity="0.6"/>
  <ellipse cx="195" cy="730" rx="80" ry="30" fill="none" stroke="#81d4fa" stroke-width="1.5" opacity="0.5"/>
  <!-- Lily pads -->
  <ellipse cx="165" cy="728" rx="14" ry="9" fill="#66bb6a" opacity="0.8"/>
  <ellipse cx="220" cy="732" rx="12" ry="8" fill="#66bb6a" opacity="0.8"/>
  <circle cx="168" cy="724" r="4" fill="#f06292"/>
  <circle cx="223" cy="728" r="3" fill="#f48fb1"/>

  <!-- Flowers scattered -->
  <g>
    <!-- Row of flowers bottom -->
    <line x1="110" y1="670" x2="110" y2="650" stroke="#a5d6a7" stroke-width="2.5"/>
    <circle cx="110" cy="646" r="9" fill="#f48fb1"/>
    <circle cx="110" cy="646" r="4.5" fill="#fff9c4"/>

    <line x1="140" y1="680" x2="140" y2="658" stroke="#a5d6a7" stroke-width="2.5"/>
    <circle cx="140" cy="654" r="8" fill="#ce93d8"/>
    <circle cx="140" cy="654" r="4" fill="#fff9c4"/>

    <line x1="245" y1="672" x2="245" y2="652" stroke="#a5d6a7" stroke-width="2.5"/>
    <circle cx="245" cy="648" r="9" fill="#fff176"/>
    <circle cx="245" cy="648" r="4.5" fill="#ff8f00"/>

    <line x1="312" y1="675" x2="312" y2="655" stroke="#a5d6a7" stroke-width="2.5"/>
    <circle cx="312" cy="651" r="8" fill="#f48fb1"/>
    <circle cx="312" cy="651" r="4" fill="#fff9c4"/>

    <line x1="355" y1="668" x2="355" y2="650" stroke="#a5d6a7" stroke-width="2.5"/>
    <circle cx="355" cy="646" r="7" fill="#ce93d8"/>
    <circle cx="355" cy="646" r="3.5" fill="#fff9c4"/>

    <line x1="32" y1="672" x2="32" y2="652" stroke="#a5d6a7" stroke-width="2.5"/>
    <circle cx="32" cy="648" r="8" fill="#ffcc80"/>
    <circle cx="32" cy="648" r="4" fill="#fff9c4"/>

    <line x1="62" y1="668" x2="62" y2="650" stroke="#a5d6a7" stroke-width="2.5"/>
    <circle cx="62" cy="646" r="7" fill="#f06292"/>
    <circle cx="62" cy="646" r="3.5" fill="#fff9c4"/>
  </g>

  <!-- Butterflies -->
  <g opacity="0.8">
    <ellipse cx="320" cy="340" rx="12" ry="8" fill="#f48fb1" transform="rotate(-20,320,340)"/>
    <ellipse cx="340" cy="340" rx="12" ry="8" fill="#f48fb1" transform="rotate(20,340,340)"/>
    <ellipse cx="322" cy="348" rx="8" ry="5" fill="#f8bbd0" transform="rotate(15,322,348)"/>
    <ellipse cx="338" cy="348" rx="8" ry="5" fill="#f8bbd0" transform="rotate(-15,338,348)"/>
    <line x1="330" y1="338" x2="330" y2="352" stroke="#ad1457" stroke-width="1.5"/>
    <path d="M327,338 Q328,332 330,330 Q332,332 333,338" fill="none" stroke="#ad1457" stroke-width="1" stroke-linecap="round"/>
  </g>
  <g opacity="0.7">
    <ellipse cx="55" cy="400" rx="10" ry="6" fill="#ce93d8" transform="rotate(-20,55,400)"/>
    <ellipse cx="72" cy="400" rx="10" ry="6" fill="#ce93d8" transform="rotate(20,72,400)"/>
    <ellipse cx="57" cy="407" rx="7" ry="4" fill="#e1bee7" transform="rotate(15,57,407)"/>
    <ellipse cx="70" cy="407" rx="7" ry="4" fill="#e1bee7" transform="rotate(-15,70,407)"/>
    <line x1="63" y1="398" x2="63" y2="410" stroke="#7b1fa2" stroke-width="1.2"/>
  </g>

  <!-- Clouds soft -->
  <g filter="url(#blur3)" opacity="0.75">
    <ellipse cx="100" cy="180" rx="60" ry="30" fill="white"/>
    <ellipse cx="74" cy="192" rx="38" ry="24" fill="white"/>
    <ellipse cx="130" cy="194" rx="40" ry="22" fill="white"/>
  </g>
  <g filter="url(#blur3)" opacity="0.6">
    <ellipse cx="310" cy="220" rx="52" ry="26" fill="white"/>
    <ellipse cx="288" cy="230" rx="34" ry="20" fill="white"/>
    <ellipse cx="336" cy="232" rx="36" ry="20" fill="white"/>
  </g>

  <!-- Rainbow faint -->
  <g opacity="0.12">
    <path d="M 30 500 Q 195 200 360 500" stroke="#ef5350" stroke-width="14" fill="none"/>
    <path d="M 40 500 Q 195 215 350 500" stroke="#ff9800" stroke-width="14" fill="none"/>
    <path d="M 50 500 Q 195 230 340 500" stroke="#ffeb3b" stroke-width="14" fill="none"/>
    <path d="M 60 500 Q 195 245 330 500" stroke="#4caf50" stroke-width="14" fill="none"/>
    <path d="M 70 500 Q 195 260 320 500" stroke="#2196f3" stroke-width="14" fill="none"/>
    <path d="M 80 500 Q 195 275 310 500" stroke="#9c27b0" stroke-width="14" fill="none"/>
  </g>

  <!-- Ground -->
  <rect x="0" y="790" width="390" height="54" fill="#a5d6a7"/>
  <ellipse cx="195" cy="790" rx="260" ry="40" fill="#c8e6c9"/>

  <!-- Grass tufts -->
  <g stroke="#66bb6a" stroke-width="2" stroke-linecap="round" fill="none">
    <path d="M 0 790 Q 5 778 10 790"/><path d="M 15 792 Q 20 780 25 792"/>
    <path d="M 30 789 Q 35 777 40 789"/><path d="M 50 791 Q 55 779 60 791"/>
    <path d="M 70 790 Q 75 778 80 790"/><path d="M 100 792 Q 105 780 110 792"/>
    <path d="M 130 789 Q 135 777 140 789"/><path d="M 160 791 Q 165 779 170 791"/>
    <path d="M 200 790 Q 205 778 210 790"/><path d="M 230 792 Q 235 780 240 792"/>
    <path d="M 260 789 Q 265 777 270 789"/><path d="M 300 791 Q 305 779 310 791"/>
    <path d="M 340 790 Q 345 778 350 790"/><path d="M 370 792 Q 375 780 380 792"/>
  </g>
</svg>
